<mxfile host="app.diagrams.net" modified="2023-03-06T15:20:52.739Z" agent="5.0 (Macintosh; Intel Mac OS X 10_15_7) AppleWebKit/537.36 (KHTML, like Gecko) Chrome/109.0.0.0 Safari/537.36" etag="V72Tk6w8b_M5AOPcBfz8" version="21.0.2" type="github">
  <diagram name="Page-1" id="DvVTkt0Bd2aQNm8GhFV5">
    <mxGraphModel dx="2074" dy="1167" grid="1" gridSize="10" guides="1" tooltips="1" connect="1" arrows="1" fold="1" page="1" pageScale="1" pageWidth="850" pageHeight="1100" math="0" shadow="0">
      <root>
        <mxCell id="0" />
        <mxCell id="1" parent="0" />
        <mxCell id="TMj0s_l191D6jlC9OLq8-5" style="edgeStyle=orthogonalEdgeStyle;rounded=0;orthogonalLoop=1;jettySize=auto;html=1;exitX=0.5;exitY=1;exitDx=0;exitDy=0;entryX=0.5;entryY=0;entryDx=0;entryDy=0;" edge="1" parent="1" source="TMj0s_l191D6jlC9OLq8-1" target="TMj0s_l191D6jlC9OLq8-4">
          <mxGeometry relative="1" as="geometry" />
        </mxCell>
        <mxCell id="TMj0s_l191D6jlC9OLq8-1" value="Genesis Key Contract" style="rounded=0;whiteSpace=wrap;html=1;" vertex="1" parent="1">
          <mxGeometry x="250" y="400" width="240" height="60" as="geometry" />
        </mxCell>
        <mxCell id="TMj0s_l191D6jlC9OLq8-12" style="edgeStyle=orthogonalEdgeStyle;rounded=0;orthogonalLoop=1;jettySize=auto;html=1;exitX=1;exitY=0.5;exitDx=0;exitDy=0;" edge="1" parent="1" source="TMj0s_l191D6jlC9OLq8-2" target="TMj0s_l191D6jlC9OLq8-11">
          <mxGeometry relative="1" as="geometry" />
        </mxCell>
        <mxCell id="TMj0s_l191D6jlC9OLq8-2" value="Profile Auction Contract" style="rounded=0;whiteSpace=wrap;html=1;" vertex="1" parent="1">
          <mxGeometry x="250" y="300" width="240" height="60" as="geometry" />
        </mxCell>
        <mxCell id="TMj0s_l191D6jlC9OLq8-3" value="" style="endArrow=classic;html=1;rounded=0;exitX=0.5;exitY=1;exitDx=0;exitDy=0;entryX=0.5;entryY=0;entryDx=0;entryDy=0;" edge="1" parent="1" source="TMj0s_l191D6jlC9OLq8-2" target="TMj0s_l191D6jlC9OLq8-1">
          <mxGeometry width="50" height="50" relative="1" as="geometry">
            <mxPoint x="400" y="620" as="sourcePoint" />
            <mxPoint x="450" y="570" as="targetPoint" />
          </mxGeometry>
        </mxCell>
        <mxCell id="TMj0s_l191D6jlC9OLq8-4" value="&lt;font style=&quot;font-size: 47px;&quot;&gt;í ½í´‘&lt;/font&gt;" style="whiteSpace=wrap;html=1;aspect=fixed;" vertex="1" parent="1">
          <mxGeometry x="330" y="500" width="80" height="80" as="geometry" />
        </mxCell>
        <mxCell id="TMj0s_l191D6jlC9OLq8-6" value="mints new GK&lt;br&gt;(maximum 10,000 total keys)" style="text;html=1;align=left;verticalAlign=middle;resizable=0;points=[];autosize=1;strokeColor=none;fillColor=none;" vertex="1" parent="1">
          <mxGeometry x="380" y="460" width="180" height="40" as="geometry" />
        </mxCell>
        <mxCell id="TMj0s_l191D6jlC9OLq8-7" value="authorizes mint" style="text;html=1;align=center;verticalAlign=middle;resizable=0;points=[];autosize=1;strokeColor=none;fillColor=none;" vertex="1" parent="1">
          <mxGeometry x="372" y="365" width="100" height="30" as="geometry" />
        </mxCell>
        <mxCell id="TMj0s_l191D6jlC9OLq8-8" value="User" style="shape=umlActor;verticalLabelPosition=bottom;verticalAlign=top;html=1;outlineConnect=0;" vertex="1" parent="1">
          <mxGeometry x="355" y="180" width="30" height="60" as="geometry" />
        </mxCell>
        <mxCell id="TMj0s_l191D6jlC9OLq8-9" value="" style="endArrow=classic;html=1;rounded=0;entryX=0.5;entryY=0;entryDx=0;entryDy=0;exitX=-0.037;exitY=0;exitDx=0;exitDy=0;exitPerimeter=0;" edge="1" parent="1" source="TMj0s_l191D6jlC9OLq8-10" target="TMj0s_l191D6jlC9OLq8-2">
          <mxGeometry width="50" height="50" relative="1" as="geometry">
            <mxPoint x="370" y="210" as="sourcePoint" />
            <mxPoint x="450" y="550" as="targetPoint" />
          </mxGeometry>
        </mxCell>
        <mxCell id="TMj0s_l191D6jlC9OLq8-10" value="pays ETH" style="text;html=1;align=center;verticalAlign=middle;resizable=0;points=[];autosize=1;strokeColor=none;fillColor=none;" vertex="1" parent="1">
          <mxGeometry x="372" y="270" width="80" height="30" as="geometry" />
        </mxCell>
        <mxCell id="TMj0s_l191D6jlC9OLq8-11" value="NFT.com Treasury&lt;br&gt;(Gnosis Multisg)" style="whiteSpace=wrap;html=1;aspect=fixed;" vertex="1" parent="1">
          <mxGeometry x="600" y="275" width="110" height="110" as="geometry" />
        </mxCell>
        <mxCell id="TMj0s_l191D6jlC9OLq8-13" value="forwards ETH" style="text;html=1;align=center;verticalAlign=middle;resizable=0;points=[];autosize=1;strokeColor=none;fillColor=none;" vertex="1" parent="1">
          <mxGeometry x="490" y="300" width="100" height="30" as="geometry" />
        </mxCell>
      </root>
    </mxGraphModel>
  </diagram>
</mxfile>
